<?xml version="1.0" encoding="UTF-8"?>
<svg width="235px" height="11px" viewBox="0 0 235 11" version="1.1" xmlns="http://www.w3.org/2000/svg" xmlns:xlink="http://www.w3.org/1999/xlink">
    <title>legend-days-line 2</title>
    <g id="legend-days-line" stroke="none" fill="none" transform="translate(0.0907, 0.7825)" stroke-width="1">
        <circle id="Oval-2-Copy-37" stroke="#0F673F" fill="#0F673F" fill-rule="evenodd" cx="2.5" cy="5.21232945" r="2"></circle>
        <circle id="Oval-2-Copy-3" stroke="#3C338A" cx="101" cy="5.21232945" r="2"></circle>
        <g id="Days-traveling-Days" fill-rule="evenodd" transform="translate(8.227, -1)" fill="#000000">
            <path d="M2.83447266,9 L1.25244141,9 L1.25244141,8.26171875 L2.78173828,8.26171875 C3.31494141,8.26171875 3.7565918,8.15991211 4.10668945,7.95629883 C4.45678711,7.75268555 4.71826172,7.46044922 4.89111328,7.07958984 C5.06396484,6.69873047 5.15039062,6.24316406 5.15039062,5.71289062 C5.15039062,5.18847656 5.06469727,4.73803711 4.89331055,4.36157227 C4.72192383,3.98510742 4.46704102,3.69580078 4.12866211,3.49365234 C3.7902832,3.29150391 3.36767578,3.19042969 2.86083984,3.19042969 L1.21728516,3.19042969 L1.21728516,2.45214844 L2.91796875,2.45214844 C3.55664062,2.45214844 4.10229492,2.58251953 4.55493164,2.84326172 C5.00756836,3.10400391 5.35473633,3.47827148 5.59643555,3.96606445 C5.83813477,4.45385742 5.95898438,5.03613281 5.95898438,5.71289062 C5.95898438,6.39550781 5.83740234,6.98217773 5.59423828,7.47290039 C5.35107422,7.96362305 4.99658203,8.34082031 4.53076172,8.60449219 C4.06494141,8.86816406 3.49951172,9 2.83447266,9 Z M1.62597656,2.45214844 L1.62597656,9 L0.791015625,9 L0.791015625,2.45214844 L1.62597656,2.45214844 Z" id="Shape" fill-rule="nonzero"></path>
            <path d="M6.38387277,9 L8.76131417,2.45214844 L9.72811105,2.45214844 L12.1363142,9 L11.2574079,9 L9.86873605,5.11523438 C9.78377511,4.875 9.68489816,4.57543945 9.57210519,4.21655273 C9.45931222,3.85766602 9.32234933,3.39990234 9.16121652,2.84326172 L9.31941964,2.84326172 C9.16121652,3.40576172 9.02425363,3.86938477 8.90853097,4.23413086 C8.79280831,4.59887695 8.69686105,4.89257812 8.62068917,5.11523438 L7.27156808,9 L6.38387277,9 Z M7.57918527,7.171875 L7.57918527,6.44238281 L10.9410017,6.44238281 L10.9410017,7.171875 L7.57918527,7.171875 Z" id="Shape" fill-rule="nonzero"></path>
            <path d="M14.3058315,9 L14.3058315,6.31933594 L11.8976283,2.45214844 L12.8644252,2.45214844 L14.1608119,4.56591797 C14.3072963,4.80322266 14.436935,5.02954102 14.549728,5.24487305 C14.6625209,5.46020508 14.778976,5.73193359 14.8990932,6.06005859 L14.5651088,6.06005859 C14.685226,5.72607422 14.8024135,5.44995117 14.9166713,5.23168945 C15.0309291,5.01342773 15.1569057,4.79150391 15.294601,4.56591797 L16.5865932,2.45214844 L17.5489955,2.45214844 L15.1407924,6.31933594 L15.1407924,9 L14.3058315,9 Z" id="Path" fill-rule="nonzero"></path>
            <path d="M20.6325753,9.11425781 C20.1608956,9.11425781 19.7514718,9.03808594 19.4043039,8.88574219 C19.0571359,8.73339844 18.7854074,8.52026367 18.5891183,8.24633789 C18.3928292,7.97241211 18.2815011,7.65234375 18.2551339,7.28613281 L19.1120675,7.28613281 C19.135505,7.53222656 19.2190011,7.73510742 19.3625558,7.89477539 C19.5061105,8.05444336 19.6899484,8.1730957 19.9140695,8.25073242 C20.1381906,8.32836914 20.3776925,8.3671875 20.6325753,8.3671875 C20.9284738,8.3671875 21.1943429,8.31884766 21.4301828,8.22216797 C21.6660226,8.12548828 21.8527902,7.98925781 21.9904855,7.81347656 C22.1281808,7.63769531 22.1970285,7.43408203 22.1970285,7.20263672 C22.1970285,6.99169922 22.1377023,6.8203125 22.0190499,6.68847656 C21.9003976,6.55664062 21.7429269,6.44824219 21.5466378,6.36328125 C21.3503488,6.27832031 21.1350167,6.20361328 20.9006417,6.13916016 L20.1096261,5.91503906 C19.5822824,5.765625 19.1721261,5.55175781 18.8791574,5.2734375 C18.5861886,4.99511719 18.4397042,4.63916016 18.4397042,4.20556641 C18.4397042,3.83642578 18.5393136,3.51342773 18.7385324,3.23657227 C18.9377511,2.9597168 19.2072824,2.74511719 19.5471261,2.59277344 C19.8869699,2.44042969 20.2678292,2.36425781 20.6897042,2.36425781 C21.1203683,2.36425781 21.5012277,2.44042969 21.8322824,2.59277344 C22.1633371,2.74511719 22.4248117,2.95239258 22.6167062,3.21459961 C22.8086007,3.47680664 22.9104074,3.7734375 22.9221261,4.10449219 L22.1047433,4.10449219 C22.0666574,3.78515625 21.9143136,3.53833008 21.6477121,3.36401367 C21.3811105,3.18969727 21.0529855,3.10253906 20.6633371,3.10253906 C20.3820871,3.10253906 20.1352609,3.14868164 19.9228585,3.2409668 C19.7104562,3.33325195 19.5456613,3.45922852 19.4284738,3.61889648 C19.3112863,3.77856445 19.2526925,3.9609375 19.2526925,4.16601562 C19.2526925,4.39453125 19.3237374,4.57836914 19.4658273,4.7175293 C19.6079171,4.85668945 19.7763742,4.96508789 19.9711984,5.04272461 C20.1660226,5.12036133 20.3425363,5.18115234 20.5007394,5.22509766 L21.1555246,5.40527344 C21.3313058,5.45214844 21.5253976,5.51660156 21.7377999,5.59863281 C21.9502023,5.68066406 22.1530831,5.78979492 22.3464425,5.92602539 C22.5398019,6.06225586 22.6987374,6.23510742 22.8232492,6.44458008 C22.9477609,6.65405273 23.0100167,6.91113281 23.0100167,7.21582031 C23.0100167,7.57324219 22.9169992,7.89550781 22.730964,8.18261719 C22.5449289,8.46972656 22.2746652,8.69677734 21.920173,8.86376953 C21.5656808,9.03076172 21.1364816,9.11425781 20.6325753,9.11425781 Z" id="Path" fill-rule="nonzero"></path>
            <polygon id="Path" fill-rule="nonzero" points="26.4174107 3.19042969 26.4174107 2.45214844 31.3656529 2.45214844 31.3656529 3.19042969 29.3134068 3.19042969 29.3134068 9 28.4784459 9 28.4784459 3.19042969"></polygon>
            <path d="M32.5551897,9 L32.5551897,2.45214844 L34.7964007,2.45214844 C35.3061663,2.45214844 35.725844,2.53930664 36.0554339,2.71362305 C36.3850237,2.88793945 36.6296526,3.12744141 36.7893206,3.43212891 C36.9489886,3.73681641 37.0288225,4.08398438 37.0288225,4.47363281 C37.0288225,4.86328125 36.9489886,5.20751953 36.7893206,5.50634766 C36.6296526,5.80517578 36.3857561,6.03881836 36.0576311,6.20727539 C35.7295061,6.37573242 35.3105608,6.45996094 34.8007952,6.45996094 L33.02101,6.45996094 L33.02101,5.71728516 L34.7612444,5.71728516 C35.1069475,5.71728516 35.3845354,5.66674805 35.5940081,5.56567383 C35.8034807,5.46459961 35.9565569,5.32104492 36.0532366,5.13500977 C36.1499163,4.94897461 36.1982561,4.72851562 36.1982561,4.47363281 C36.1982561,4.21289062 36.1499163,3.98657227 36.0532366,3.79467773 C35.9565569,3.6027832 35.8027483,3.45336914 35.5918108,3.34643555 C35.3808733,3.23950195 35.1010882,3.18603516 34.7524554,3.18603516 L33.3901507,3.18603516 L33.3901507,9 L32.5551897,9 Z M36.3169085,9 L34.7348772,6.05126953 L35.6753069,6.05126953 L37.2837054,9 L36.3169085,9 Z" id="Shape" fill-rule="nonzero"></path>
            <path d="M37.7525391,9 L40.1299805,2.45214844 L41.0967773,2.45214844 L43.5049805,9 L42.6260742,9 L41.2374023,5.11523438 C41.1524414,4.875 41.0535645,4.57543945 40.9407715,4.21655273 C40.8279785,3.85766602 40.6910156,3.39990234 40.5298828,2.84326172 L40.6880859,2.84326172 C40.5298828,3.40576172 40.3929199,3.86938477 40.2771973,4.23413086 C40.1614746,4.59887695 40.0655273,4.89257812 39.9893555,5.11523438 L38.6402344,9 L37.7525391,9 Z M38.9478516,7.171875 L38.9478516,6.44238281 L42.309668,6.44238281 L42.309668,7.171875 L38.9478516,7.171875 Z" id="Shape" fill-rule="nonzero"></path>
            <path d="M45.7228376,9 L43.3146345,2.45214844 L44.1935407,2.45214844 L45.5778181,6.33691406 C45.6569196,6.55957031 45.7557966,6.85693359 45.8744489,7.22900391 C45.9931013,7.60107422 46.131529,8.05957031 46.2897321,8.60449219 L46.1271345,8.60449219 C46.2853376,8.04492188 46.4230329,7.58276367 46.5402204,7.21801758 C46.6574079,6.85327148 46.7540876,6.55957031 46.8302595,6.33691406 L48.1793806,2.45214844 L49.0670759,2.45214844 L46.68524,9 L45.7228376,9 Z" id="Path" fill-rule="nonzero"></path>
            <polygon id="Path" fill-rule="nonzero" points="50.0544643 9 50.0544643 2.45214844 54.0446987 2.45214844 54.0446987 3.19042969 50.8894252 3.19042969 50.8894252 5.32617188 53.8293666 5.32617188 53.8293666 6.06445312 50.8894252 6.06445312 50.8894252 8.26171875 54.0842494 8.26171875 54.0842494 9"></polygon>
            <polygon id="Path" fill-rule="nonzero" points="55.4319894 9 55.4319894 2.45214844 56.2669503 2.45214844 56.2669503 8.26171875 59.2991769 8.26171875 59.2991769 9"></polygon>
            <polygon id="Path" fill-rule="nonzero" points="61.3236747 2.45214844 61.3236747 9 60.4887137 9 60.4887137 2.45214844"></polygon>
            <path d="M62.8735631,9 L62.8735631,2.45214844 L63.8579381,2.45214844 L66.521024,6.64013672 C66.5913365,6.74853516 66.6762974,6.88769531 66.7759068,7.05761719 C66.8755162,7.22753906 66.9831822,7.41943359 67.0989049,7.63330078 C67.2146275,7.84716797 67.3281529,8.07568359 67.439481,8.31884766 L67.3208287,8.31884766 C67.2944615,8.06689453 67.2754185,7.82592773 67.2636998,7.59594727 C67.251981,7.3659668 67.2446568,7.15429688 67.2417271,6.9609375 C67.2387974,6.76757812 67.2373326,6.60351562 67.2373326,6.46875 L67.2373326,2.45214844 L68.0722935,2.45214844 L68.0722935,9 L67.0791295,9 L64.7060826,5.2734375 C64.5976842,5.10058594 64.4885533,4.92260742 64.37869,4.73950195 C64.2688267,4.55639648 64.1435826,4.33959961 64.0029576,4.08911133 C63.8623326,3.83862305 63.6880162,3.52880859 63.4800084,3.15966797 L63.633817,3.15966797 C63.6484654,3.48486328 63.661649,3.78515625 63.6733677,4.06054688 C63.6850865,4.3359375 63.694608,4.57617188 63.7019322,4.78125 C63.7092564,4.98632812 63.7129185,5.14746094 63.7129185,5.26464844 L63.7129185,9 L62.8735631,9 Z" id="Path" fill-rule="nonzero"></path>
            <path d="M72.2984515,9.08789062 C71.7154436,9.08789062 71.2042132,8.95166016 70.76476,8.67919922 C70.3253069,8.40673828 69.9825335,8.01928711 69.7364397,7.5168457 C69.490346,7.0144043 69.3672991,6.41894531 69.3672991,5.73046875 C69.3672991,5.03613281 69.490346,4.43774414 69.7364397,3.93530273 C69.9825335,3.43286133 70.3223772,3.04541016 70.755971,2.77294922 C71.1895647,2.50048828 71.6861468,2.36425781 72.2457171,2.36425781 C72.5914202,2.36425781 72.9144182,2.41552734 73.2147112,2.51806641 C73.5150042,2.62060547 73.783803,2.76708984 74.0211077,2.95751953 C74.2584124,3.14794922 74.4554339,3.37426758 74.6121722,3.63647461 C74.7689104,3.89868164 74.8765765,4.18798828 74.9351702,4.50439453 L74.0738421,4.50439453 C74.0064593,4.29345703 73.9171038,4.10449219 73.8057757,3.9375 C73.6944475,3.77050781 73.5618792,3.62695312 73.4080706,3.50683594 C73.254262,3.38671875 73.080678,3.29516602 72.8873186,3.23217773 C72.6939593,3.16918945 72.4815569,3.13769531 72.2501116,3.13769531 C71.8663225,3.13769531 71.5176897,3.23657227 71.2042132,3.43432617 C70.8907366,3.63208008 70.6417132,3.92358398 70.4571429,4.30883789 C70.2725725,4.6940918 70.1802874,5.16796875 70.1802874,5.73046875 C70.1802874,6.28710938 70.273305,6.75732422 70.4593401,7.14111328 C70.6453753,7.52490234 70.8980608,7.81640625 71.2173968,8.015625 C71.5367327,8.21484375 71.8970843,8.31445312 72.2984515,8.31445312 C72.6675921,8.31445312 72.9927874,8.23608398 73.2740374,8.0793457 C73.5552874,7.92260742 73.7742815,7.69995117 73.9310198,7.41137695 C74.0877581,7.12280273 74.1661272,6.78222656 74.1661272,6.38964844 L74.4166155,6.43798828 L72.4698382,6.43798828 L72.4698382,5.70849609 L74.98351,5.70849609 L74.98351,6.42480469 C74.98351,6.96679688 74.8677874,7.43701172 74.6363421,7.83544922 C74.4048968,8.23388672 74.0877581,8.54223633 73.6849261,8.76049805 C73.282094,8.97875977 72.8199358,9.08789062 72.2984515,9.08789062 Z" id="Path" fill-rule="nonzero"></path>
            <path d="M100.840304,9 L99.2582729,9 L99.2582729,8.26171875 L100.78757,8.26171875 C101.320773,8.26171875 101.762423,8.15991211 102.112521,7.95629883 C102.462619,7.75268555 102.724093,7.46044922 102.896945,7.07958984 C103.069796,6.69873047 103.156222,6.24316406 103.156222,5.71289062 C103.156222,5.18847656 103.070529,4.73803711 102.899142,4.36157227 C102.727755,3.98510742 102.472872,3.69580078 102.134494,3.49365234 C101.796115,3.29150391 101.373507,3.19042969 100.866671,3.19042969 L99.2231166,3.19042969 L99.2231166,2.45214844 L100.9238,2.45214844 C101.562472,2.45214844 102.108126,2.58251953 102.560763,2.84326172 C103.0134,3.10400391 103.360568,3.47827148 103.602267,3.96606445 C103.843966,4.45385742 103.964816,5.03613281 103.964816,5.71289062 C103.964816,6.39550781 103.843234,6.98217773 103.60007,7.47290039 C103.356906,7.96362305 103.002414,8.34082031 102.536593,8.60449219 C102.070773,8.86816406 101.505343,9 100.840304,9 Z M99.631808,2.45214844 L99.631808,9 L98.7968471,9 L98.7968471,2.45214844 L99.631808,2.45214844 Z" id="Shape" fill-rule="nonzero"></path>
            <path d="M104.389704,9 L106.767146,2.45214844 L107.733943,2.45214844 L110.142146,9 L109.263239,9 L107.874568,5.11523438 C107.789607,4.875 107.69073,4.57543945 107.577937,4.21655273 C107.465144,3.85766602 107.328181,3.39990234 107.167048,2.84326172 L107.325251,2.84326172 C107.167048,3.40576172 107.030085,3.86938477 106.914362,4.23413086 C106.79864,4.59887695 106.702693,4.89257812 106.626521,5.11523438 L105.2774,9 L104.389704,9 Z M105.585017,7.171875 L105.585017,6.44238281 L108.946833,6.44238281 L108.946833,7.171875 L105.585017,7.171875 Z" id="Shape" fill-rule="nonzero"></path>
            <path d="M112.311663,9 L112.311663,6.31933594 L109.90346,2.45214844 L110.870257,2.45214844 L112.166643,4.56591797 C112.313128,4.80322266 112.442766,5.02954102 112.555559,5.24487305 C112.668352,5.46020508 112.784807,5.73193359 112.904925,6.06005859 L112.57094,6.06005859 C112.691057,5.72607422 112.808245,5.44995117 112.922503,5.23168945 C113.036761,5.01342773 113.162737,4.79150391 113.300432,4.56591797 L114.592425,2.45214844 L115.554827,2.45214844 L113.146624,6.31933594 L113.146624,9 L112.311663,9 Z" id="Path" fill-rule="nonzero"></path>
            <path d="M118.638407,9.11425781 C118.166727,9.11425781 117.757303,9.03808594 117.410135,8.88574219 C117.062967,8.73339844 116.791239,8.52026367 116.59495,8.24633789 C116.398661,7.97241211 116.287333,7.65234375 116.260965,7.28613281 L117.117899,7.28613281 C117.141336,7.53222656 117.224833,7.73510742 117.368387,7.89477539 C117.511942,8.05444336 117.69578,8.1730957 117.919901,8.25073242 C118.144022,8.32836914 118.383524,8.3671875 118.638407,8.3671875 C118.934305,8.3671875 119.200174,8.31884766 119.436014,8.22216797 C119.671854,8.12548828 119.858622,7.98925781 119.996317,7.81347656 C120.134012,7.63769531 120.20286,7.43408203 120.20286,7.20263672 C120.20286,6.99169922 120.143534,6.8203125 120.024881,6.68847656 C119.906229,6.55664062 119.748758,6.44824219 119.552469,6.36328125 C119.35618,6.27832031 119.140848,6.20361328 118.906473,6.13916016 L118.115458,5.91503906 C117.588114,5.765625 117.177958,5.55175781 116.884989,5.2734375 C116.59202,4.99511719 116.445536,4.63916016 116.445536,4.20556641 C116.445536,3.83642578 116.545145,3.51342773 116.744364,3.23657227 C116.943583,2.9597168 117.213114,2.74511719 117.552958,2.59277344 C117.892801,2.44042969 118.273661,2.36425781 118.695536,2.36425781 C119.1262,2.36425781 119.507059,2.44042969 119.838114,2.59277344 C120.169169,2.74511719 120.430643,2.95239258 120.622538,3.21459961 C120.814432,3.47680664 120.916239,3.7734375 120.927958,4.10449219 L120.110575,4.10449219 C120.072489,3.78515625 119.920145,3.53833008 119.653544,3.36401367 C119.386942,3.18969727 119.058817,3.10253906 118.669169,3.10253906 C118.387919,3.10253906 118.141092,3.14868164 117.92869,3.2409668 C117.716288,3.33325195 117.551493,3.45922852 117.434305,3.61889648 C117.317118,3.77856445 117.258524,3.9609375 117.258524,4.16601562 C117.258524,4.39453125 117.329569,4.57836914 117.471659,4.7175293 C117.613749,4.85668945 117.782206,4.96508789 117.97703,5.04272461 C118.171854,5.12036133 118.348368,5.18115234 118.506571,5.22509766 L119.161356,5.40527344 C119.337137,5.45214844 119.531229,5.51660156 119.743631,5.59863281 C119.956034,5.68066406 120.158915,5.78979492 120.352274,5.92602539 C120.545633,6.06225586 120.704569,6.23510742 120.829081,6.44458008 C120.953592,6.65405273 121.015848,6.91113281 121.015848,7.21582031 C121.015848,7.57324219 120.922831,7.89550781 120.736795,8.18261719 C120.55076,8.46972656 120.280497,8.69677734 119.926004,8.86376953 C119.571512,9.03076172 119.142313,9.11425781 118.638407,9.11425781 Z" id="Path" fill-rule="nonzero"></path>
            <polygon id="Path" fill-rule="nonzero" points="125.618555 2.45214844 125.618555 9 124.783594 9 124.783594 2.45214844"></polygon>
            <path d="M127.168443,9 L127.168443,2.45214844 L128.152818,2.45214844 L130.815904,6.64013672 C130.886217,6.74853516 130.971177,6.88769531 131.070787,7.05761719 C131.170396,7.22753906 131.278062,7.41943359 131.393785,7.63330078 C131.509508,7.84716797 131.623033,8.07568359 131.734361,8.31884766 L131.615709,8.31884766 C131.589342,8.06689453 131.570299,7.82592773 131.55858,7.59594727 C131.546861,7.3659668 131.539537,7.15429688 131.536607,6.9609375 C131.533677,6.76757812 131.532213,6.60351562 131.532213,6.46875 L131.532213,2.45214844 L132.367174,2.45214844 L132.367174,9 L131.374009,9 L129.000963,5.2734375 C128.892564,5.10058594 128.783433,4.92260742 128.67357,4.73950195 C128.563707,4.55639648 128.438463,4.33959961 128.297838,4.08911133 C128.157213,3.83862305 127.982896,3.52880859 127.774888,3.15966797 L127.928697,3.15966797 C127.943345,3.48486328 127.956529,3.78515625 127.968248,4.06054688 C127.979967,4.3359375 127.989488,4.57617188 127.996812,4.78125 C128.004136,4.98632812 128.007799,5.14746094 128.007799,5.26464844 L128.007799,9 L127.168443,9 Z" id="Path" fill-rule="nonzero"></path>
            <path d="M136.416169,9 L136.416169,2.45214844 L138.65738,2.45214844 C139.167146,2.45214844 139.586823,2.54516602 139.916413,2.73120117 C140.246003,2.91723633 140.490632,3.16699219 140.6503,3.48046875 C140.809968,3.79394531 140.889802,4.14550781 140.889802,4.53515625 C140.889802,4.92480469 140.809968,5.27783203 140.6503,5.59423828 C140.490632,5.91064453 140.246735,6.16259766 139.91861,6.35009766 C139.590485,6.53759766 139.17154,6.63134766 138.661775,6.63134766 L137.075349,6.63134766 L137.075349,5.89746094 L138.622224,5.89746094 C138.967927,5.89746094 139.246247,5.83813477 139.457185,5.71948242 C139.668122,5.60083008 139.821198,5.43823242 139.916413,5.23168945 C140.011628,5.02514648 140.059235,4.79296875 140.059235,4.53515625 C140.059235,4.27734375 140.011628,4.04663086 139.916413,3.84301758 C139.821198,3.6394043 139.66739,3.47900391 139.454987,3.36181641 C139.242585,3.24462891 138.962068,3.18603516 138.613435,3.18603516 L137.25113,3.18603516 L137.25113,9 L136.416169,9 Z" id="Path" fill-rule="nonzero"></path>
            <polygon id="Path" fill-rule="nonzero" points="142.132073 9 142.132073 2.45214844 142.967034 2.45214844 142.967034 8.26171875 145.999261 8.26171875 145.999261 9"></polygon>
            <path d="M146.626297,9 L149.003739,2.45214844 L149.970536,2.45214844 L152.378739,9 L151.499833,9 L150.111161,5.11523438 C150.0262,4.875 149.927323,4.57543945 149.81453,4.21655273 C149.701737,3.85766602 149.564774,3.39990234 149.403641,2.84326172 L149.561844,2.84326172 C149.403641,3.40576172 149.266678,3.86938477 149.150956,4.23413086 C149.035233,4.59887695 148.939286,4.89257812 148.863114,5.11523438 L147.513993,9 L146.626297,9 Z M147.82161,7.171875 L147.82161,6.44238281 L151.183426,6.44238281 L151.183426,7.171875 L147.82161,7.171875 Z" id="Shape" fill-rule="nonzero"></path>
            <path d="M155.708412,9.08789062 C155.148842,9.08789062 154.650063,8.95239258 154.212074,8.68139648 C153.774086,8.41040039 153.429848,8.02368164 153.17936,7.52124023 C152.928871,7.01879883 152.803627,6.421875 152.803627,5.73046875 C152.803627,5.03613281 152.928871,4.43774414 153.17936,3.93530273 C153.429848,3.43286133 153.774086,3.04541016 154.212074,2.77294922 C154.650063,2.50048828 155.148842,2.36425781 155.708412,2.36425781 C156.039467,2.36425781 156.352211,2.41259766 156.646645,2.50927734 C156.941078,2.60595703 157.205483,2.74731445 157.439858,2.93334961 C157.674233,3.11938477 157.869789,3.3449707 158.026528,3.61010742 C158.183266,3.87524414 158.290932,4.17626953 158.349526,4.51318359 L157.514565,4.51318359 C157.46769,4.28759766 157.387856,4.08984375 157.275063,3.91992188 C157.16227,3.75 157.024574,3.60644531 156.861977,3.48925781 C156.699379,3.37207031 156.519936,3.28417969 156.323647,3.22558594 C156.127358,3.16699219 155.92228,3.13769531 155.708412,3.13769531 C155.315834,3.13769531 154.961342,3.23730469 154.644936,3.43652344 C154.32853,3.63574219 154.078041,3.92797852 153.893471,4.31323242 C153.708901,4.69848633 153.616616,5.17089844 153.616616,5.73046875 C153.616616,6.28710938 153.709633,6.75805664 153.895668,7.14331055 C154.081703,7.52856445 154.332924,7.82006836 154.64933,8.01782227 C154.965737,8.21557617 155.318764,8.31445312 155.708412,8.31445312 C155.92228,8.31445312 156.127358,8.28442383 156.323647,8.22436523 C156.519936,8.16430664 156.699379,8.07641602 156.861977,7.96069336 C157.024574,7.8449707 157.16227,7.70141602 157.275063,7.5300293 C157.387856,7.35864258 157.46769,7.16162109 157.514565,6.93896484 L158.349526,6.93896484 C158.293862,7.27294922 158.18766,7.57177734 158.030922,7.83544922 C157.874184,8.09912109 157.678627,8.32470703 157.444252,8.51220703 C157.209877,8.69970703 156.945473,8.8425293 156.651039,8.94067383 C156.356606,9.03881836 156.042397,9.08789062 155.708412,9.08789062 Z" id="Path" fill-rule="nonzero"></path>
            <polygon id="Path" fill-rule="nonzero" points="159.600586 9 159.600586 2.45214844 163.59082 2.45214844 163.59082 3.19042969 160.435547 3.19042969 160.435547 5.32617188 163.375488 5.32617188 163.375488 6.06445312 160.435547 6.06445312 160.435547 8.26171875 163.630371 8.26171875 163.630371 9"></polygon>
            <path d="M187.470075,9 L187.470075,2.45214844 L188.45445,2.45214844 L191.117536,6.64013672 C191.187849,6.74853516 191.27281,6.88769531 191.372419,7.05761719 C191.472028,7.22753906 191.579694,7.41943359 191.695417,7.63330078 C191.81114,7.84716797 191.924665,8.07568359 192.035993,8.31884766 L191.917341,8.31884766 C191.890974,8.06689453 191.871931,7.82592773 191.860212,7.59594727 C191.848493,7.3659668 191.841169,7.15429688 191.838239,6.9609375 C191.83531,6.76757812 191.833845,6.60351562 191.833845,6.46875 L191.833845,2.45214844 L192.668806,2.45214844 L192.668806,9 L191.675642,9 L189.302595,5.2734375 C189.194196,5.10058594 189.085066,4.92260742 188.975202,4.73950195 C188.865339,4.55639648 188.740095,4.33959961 188.59947,4.08911133 C188.458845,3.83862305 188.284528,3.52880859 188.076521,3.15966797 L188.230329,3.15966797 C188.244978,3.48486328 188.258161,3.78515625 188.26988,4.06054688 C188.281599,4.3359375 188.29112,4.57617188 188.298444,4.78125 C188.305769,4.98632812 188.309431,5.14746094 188.309431,5.26464844 L188.309431,9 L187.470075,9 Z" id="Path" fill-rule="nonzero"></path>
            <path d="M196.872991,9.08789062 C196.313421,9.08789062 195.814641,8.95239258 195.376653,8.68139648 C194.938665,8.41040039 194.593694,8.02368164 194.341741,7.52124023 C194.089788,7.01879883 193.963811,6.421875 193.963811,5.73046875 C193.963811,5.03613281 194.089788,4.43774414 194.341741,3.93530273 C194.593694,3.43286133 194.938665,3.04541016 195.376653,2.77294922 C195.814641,2.50048828 196.313421,2.36425781 196.872991,2.36425781 C197.432561,2.36425781 197.930608,2.50048828 198.367132,2.77294922 C198.803655,3.04541016 199.147161,3.43286133 199.397649,3.93530273 C199.648138,4.43774414 199.773382,5.03613281 199.773382,5.73046875 C199.773382,6.421875 199.648138,7.01879883 199.397649,7.52124023 C199.147161,8.02368164 198.803655,8.41040039 198.367132,8.68139648 C197.930608,8.95239258 197.432561,9.08789062 196.872991,9.08789062 Z M196.872991,8.31445312 C197.26264,8.31445312 197.614934,8.21557617 197.929876,8.01782227 C198.244817,7.82006836 198.495306,7.52856445 198.681341,7.14331055 C198.867376,6.75805664 198.960393,6.28710938 198.960393,5.73046875 C198.960393,5.16796875 198.867376,4.6940918 198.681341,4.30883789 C198.495306,3.92358398 198.244817,3.63208008 197.929876,3.43432617 C197.614934,3.23657227 197.26264,3.13769531 196.872991,3.13769531 C196.480413,3.13769531 196.125921,3.23730469 195.809515,3.43652344 C195.493108,3.63574219 195.241888,3.92797852 195.055852,4.31323242 C194.869817,4.69848633 194.7768,5.17089844 194.7768,5.73046875 C194.7768,6.28710938 194.869817,6.75732422 195.055852,7.14111328 C195.241888,7.52490234 195.493108,7.81640625 195.809515,8.015625 C196.125921,8.21484375 196.480413,8.31445312 196.872991,8.31445312 Z" id="Shape" fill-rule="nonzero"></path>
            <path d="M205.610951,9 L204.02892,9 L204.02892,8.26171875 L205.558217,8.26171875 C206.09142,8.26171875 206.533071,8.15991211 206.883168,7.95629883 C207.233266,7.75268555 207.494741,7.46044922 207.667592,7.07958984 C207.840444,6.69873047 207.926869,6.24316406 207.926869,5.71289062 C207.926869,5.18847656 207.841176,4.73803711 207.669789,4.36157227 C207.498403,3.98510742 207.24352,3.69580078 206.905141,3.49365234 C206.566762,3.29150391 206.144155,3.19042969 205.637319,3.19042969 L203.993764,3.19042969 L203.993764,2.45214844 L205.694448,2.45214844 C206.333119,2.45214844 206.878774,2.58251953 207.33141,2.84326172 C207.784047,3.10400391 208.131215,3.47827148 208.372914,3.96606445 C208.614614,4.45385742 208.735463,5.03613281 208.735463,5.71289062 C208.735463,6.39550781 208.613881,6.98217773 208.370717,7.47290039 C208.127553,7.96362305 207.773061,8.34082031 207.307241,8.60449219 C206.84142,8.86816406 206.275991,9 205.610951,9 Z M204.402455,2.45214844 L204.402455,9 L203.567494,9 L203.567494,2.45214844 L204.402455,2.45214844 Z" id="Shape" fill-rule="nonzero"></path>
            <path d="M209.160352,9 L211.537793,2.45214844 L212.50459,2.45214844 L214.912793,9 L214.033887,9 L212.645215,5.11523438 C212.560254,4.875 212.461377,4.57543945 212.348584,4.21655273 C212.235791,3.85766602 212.098828,3.39990234 211.937695,2.84326172 L212.095898,2.84326172 C211.937695,3.40576172 211.800732,3.86938477 211.68501,4.23413086 C211.569287,4.59887695 211.47334,4.89257812 211.397168,5.11523438 L210.048047,9 L209.160352,9 Z M210.355664,7.171875 L210.355664,6.44238281 L213.71748,6.44238281 L213.71748,7.171875 L210.355664,7.171875 Z" id="Shape" fill-rule="nonzero"></path>
            <polygon id="Path" fill-rule="nonzero" points="214.775181 3.19042969 214.775181 2.45214844 219.723424 2.45214844 219.723424 3.19042969 217.671177 3.19042969 217.671177 9 216.836217 9 216.836217 3.19042969"></polygon>
            <path d="M219.585812,9 L221.963253,2.45214844 L222.93005,2.45214844 L225.338253,9 L224.459347,9 L223.070675,5.11523438 C222.985714,4.875 222.886837,4.57543945 222.774044,4.21655273 C222.661251,3.85766602 222.524289,3.39990234 222.363156,2.84326172 L222.521359,2.84326172 C222.363156,3.40576172 222.226193,3.86938477 222.11047,4.23413086 C221.994747,4.59887695 221.8988,4.89257812 221.822628,5.11523438 L220.473507,9 L219.585812,9 Z M220.781124,7.171875 L220.781124,6.44238281 L224.142941,6.44238281 L224.142941,7.171875 L220.781124,7.171875 Z" id="Shape" fill-rule="nonzero"></path>
        </g>
        <line x1="191" y1="5.21232945" x2="187" y2="5.21232945" id="Line" stroke="#0F673F" stroke-linecap="square"></line>
    </g>
</svg>